<svg xmlns="http://www.w3.org/2000/svg" viewBox="0 0 314 223" width="314" height="223">
  <!-- (a) L-body -->
  <path id="linkx-part-l" class="linkx-part-l" d="M 54.50 83.50 L 54.50 145.50 Z M 54.50 20.50 L 54.50 83.00 Z M 42.00 1.00 L 35.50 1.00 Z M 94.00 159.50 L 69.00 159.50 Z M 97.50 208.00 L 121.50 208.00 Z M 54.50 14.50 L 54.50 20.00 Z M 0.00 96.50 L 0.00 39.00 Z M 1.00 169.50 L 1.00 165.50 Z M 119.00 159.50 L 94.50 159.50 Z M 3.00 177.50 L 3.00 175.50 Z M 121.50 207.50 L 126.00 207.50 Z M 64.00 208.00 L 97.00 208.00 Z M 38.50 207.00 L 42.00 207.00 Z M 0.00 117.50 L 0.00 97.00 Z M 0.00 132.00 L 0.00 118.00 Z M 130.50 158.00 L 128.50 158.00 Z M 124.50 159.00 L 123.00 159.00 Z M 45.50 1.00 L 42.50 1.00 Z M 0.00 139.00 L 0.00 132.50 Z M 0.00 161.00 L 0.00 139.50 Z M 1.00 34.50 L 1.00 32.50 Z M 122.00 159.50 L 119.50 159.50 Z M 2.00 30.50 L 2.00 28.50 Z M 180.50 165.50 L 180.50 167.50 Z M 58.00 208.00 L 63.50 208.00 Z M 34.00 206.00 L 35.50 206.00 Z M 54.00 9.50 L 54.00 11.00 Z M 50.50 208.00 L 57.50 208.00 Z M 55.00 147.00 L 55.00 148.50 Z M 5.00 182.00 L 5.00 180.50 Z M 129.50 206.50 L 131.00 206.50 Z M 43.50 207.50 L 45.50 207.50 Z M 35.00 1.50 L 33.50 1.50 Z M 1.50 171.50 L 1.50 170.00 Z M 2.00 174.00 L 2.00 171.50 Z M 1.00 36.50 L 1.00 35.00 Z M 67.50 159.00 L 65.50 159.00 Z M 131.00 206.00 L 133.00 206.00 Z M 47.00 208.00 L 48.50 208.00 Z" fill="#196367" fill-rule="evenodd" />
  <!-- (b) Chain-link loop -->
  <path id="linkx-part-loop" class="linkx-part-loop" d="M 310.00 46.00 L 257.00 46.00 Z M 313.00 48.50 L 313.00 50.00 Z M 313.00 51.00 L 313.00 52.50 Z M 255.00 47.00 L 253.50 47.00 Z" fill="#196367" fill-rule="evenodd" />
  <!-- (c) X strokes -->
  <path id="linkx-part-x" class="linkx-part-x" d="M 259.50 222.00 L 311.00 222.00 Z M 230.50 222.00 L 259.00 222.00 Z M 122.00 148.50 L 124.50 148.50 Z M 207.50 222.00 L 230.00 222.00 Z M 144.00 47.00 L 141.00 47.00 Z M 313.00 216.00 L 313.00 220.00 Z M 107.50 50.00 L 106.00 50.00 Z M 118.50 90.50 L 118.50 97.00 Z M 117.00 47.00 L 114.50 47.00 Z M 146.00 47.50 L 144.50 47.50 Z M 191.50 222.00 L 207.00 222.00 Z M 210.00 189.00 L 204.50 189.00 Z M 164.00 206.00 L 164.00 200.00 Z M 134.50 46.00 L 120.00 46.00 Z M 125.50 83.00 L 127.00 83.00 Z M 80.00 86.00 L 80.00 82.50 Z M 220.00 176.00 L 220.00 173.50 Z M 79.50 96.50 L 79.50 87.50 Z M 81.00 80.50 L 81.00 78.50 Z M 124.50 148.00 L 127.00 148.00 Z M 113.00 48.00 L 111.00 48.00 Z M 116.50 148.00 L 118.00 148.00 Z M 146.50 129.50 L 146.50 131.00 Z M 85.00 70.50 L 85.00 69.00 Z M 129.00 82.00 L 131.50 82.00 Z M 118.00 148.50 L 120.50 148.50 Z M 138.50 46.00 L 136.00 46.00 Z M 80.00 100.00 L 80.00 98.50 Z M 220.00 182.00 L 220.00 180.50 Z M 212.00 189.00 L 210.50 189.00 Z M 155.50 51.00 L 154.00 51.00 Z M 183.50 221.00 L 185.50 221.00 Z M 105.00 51.00 L 103.50 51.00 Z M 141.00 46.50 L 139.00 46.50 Z M 188.00 222.00 L 189.50 222.00 Z M 148.00 48.00 L 146.00 48.00 Z M 119.50 46.50 L 117.50 46.50 Z" fill="#196367" fill-rule="evenodd" />
</svg>